<svg width="7" height="10" viewBox="0 0 12 15" fill="none" xmlns="http://www.w3.org/2000/svg">
<path fill-rule="evenodd" clip-rule="evenodd" d="M5.75209 14.1465L5.75433 14.1475C5.91202 14.2161 6.00002 14.2001 6.00002 14.2001C6.00002 14.2001 6.08803 14.2161 6.24635 14.1472L6.24796 14.1465L6.25255 14.1444L6.26707 14.1377C6.27909 14.1321 6.29576 14.1243 6.31675 14.1142C6.35872 14.0939 6.41806 14.0645 6.49229 14.0258C6.64065 13.9485 6.849 13.8336 7.09735 13.6797C7.59301 13.3725 8.25392 12.9062 8.91641 12.2676C10.2418 10.9902 11.6 8.99408 11.6 6.2001C11.6 3.1073 9.09282 0.600098 6.00002 0.600098C2.90723 0.600098 0.400024 3.1073 0.400024 6.2001C0.400024 8.99408 1.75829 10.9902 3.08364 12.2676C3.74613 12.9062 4.40704 13.3725 4.9027 13.6797C5.15105 13.8336 5.3594 13.9485 5.50776 14.0258C5.58199 14.0645 5.64133 14.0939 5.6833 14.1142C5.70429 14.1243 5.72096 14.1321 5.73298 14.1377L5.7475 14.1444L5.75209 14.1465ZM6.00002 8.0001C6.99414 8.0001 7.80002 7.19421 7.80002 6.2001C7.80002 5.20599 6.99414 4.4001 6.00002 4.4001C5.00591 4.4001 4.20002 5.20599 4.20002 6.2001C4.20002 7.19421 5.00591 8.0001 6.00002 8.0001Z" fill="white"/>
</svg>
